#N canvas 0 22 523 1017 10;
#X obj 37 37 mrpeach/udpreceive 12345;
#X obj 37 73 mrpeach/unpackOSC;
#X obj 37 106 list prepend set;
#X obj 37 128 list trim;
#X msg 37 156 /image 0 0 0 0 0 0 0 0 0 0 0 0 0 0 0 0 0 0 0 0 0 0 0
0 0 0 0 0 0 0 0 0 0 0 0 0 0 0 0 0 0 0 0 0 0 0 0 0 0 0 0 0 0 0 0 0 0
0 0 0 0 0 0 0 0 0 0 0 0 0 0 0 0 0 0 0 0 0 0 0 0 0 0 0 0 0 0 0 0 0 0
0 0 0 0 0 0 0 0 0 0 0 0 0 0 0 0 0 0 0 0 0 0 0 0 0 0 0 0 0 0 0 0 0 0
0 0 0 0 0 0 0 0 0 0 0 0 0 0 0 0 0 0 0 0 0 0 0 0 0 0 0 0 0 0 0 0 0 0
0 0 0 0 0 0 0 0 0 0 0 0 0 0 0 0 0 0 0 0 0 0 0 0 0 0 0 0 0 0 0 0 0 0
0 0 0 0 0 0 0 0 0 0 0 0 0 0 0 0 0 0 0 0 0 0 0 0 0 0 0 0 0 0 0 0 0 0
0 0 0 0 0 0 0 0 0 0 0 0 0 0 0 0 0 0 0 0 0 0 0 0 0 0 0 0 0 0 0 0 0 0
220 235 255 220 235 255 220 235 255 220 235 255 0 0 0 0 0 0 0 0 0 0
0 0 0 0 0 0 0 0 0 0 0 0 0 0 0 0 0 0 0 0 0 0 0 0 0 0 0 0 0 0 0 0 0 0
0 0 0 0 0 0 0 0 0 0 0 0 0 0 0 0 0 0 0 220 235 255 220 235 255 220 235
255 220 235 255 220 235 255 220 235 255 220 235 255 220 235 255 220
235 255 220 235 255 220 235 255 220 235 255 0 0 0 0 0 0 0 0 0 0 0 0
0 0 0 0 0 0 0 0 0 0 0 0 0 0 0 0 0 0 0 0 0 0 0 0 0 0 0 0 0 0 0 0 0 0
0 0 0 0 0 0 0 0 220 235 255 220 235 255 220 235 255 220 235 255 220
235 255 220 235 255 220 235 255 220 235 255 220 235 255 220 235 255
220 235 255 220 235 255 220 235 255 220 235 255 220 235 255 220 235
255 220 235 255 220 235 255 0 0 0 0 0 0 0 0 0 0 0 0 0 0 0 0 0 0 0 0
0 0 0 0 0 0 0 0 0 0 0 0 0 0 0 0 0 0 0 0 0 0 220 235 255 220 235 255
220 235 255 220 235 255 220 235 255 220 235 255 220 235 255 220 235
255 220 235 255 220 235 255 220 235 255 220 235 255 220 235 255 220
235 255 220 235 255 220 235 255 220 235 255 220 235 255 220 235 255
220 235 255 0 0 0 0 0 0 0 0 0 0 0 0 0 0 0 0 0 0 0 0 0 0 0 0 0 0 0 0
0 0 0 0 0 0 0 0 0 0 0 0 0 0 0 0 0 220 235 255 220 235 255 220 235 255
220 235 255 220 235 255 220 235 255 220 235 255 220 235 255 220 235
255 220 235 255 220 235 255 220 235 255 220 235 255 220 235 255 220
235 255 220 235 255 220 235 255 220 235 255 220 235 255 220 235 255
220 235 255 220 235 255 220 235 255 220 235 255 0 0 0 0 0 0 0 0 0 0
0 0 0 0 0 0 0 0 0 0 0 0 0 0 0 0 0 0 0 0 0 0 0 220 235 255 220 235 255
220 235 255 220 235 255 220 235 255 220 235 255 220 235 255 220 235
255 220 235 255 220 235 255 220 235 255 220 235 255 220 235 255 220
235 255 220 235 255 220 235 255 220 235 255 220 235 255 220 235 255
220 235 255 220 235 255 220 235 255 220 235 255 220 235 255 220 235
255 220 235 255 0 0 0 0 0 0 0 0 0 0 0 0 0 0 0 0 0 0 0 0 0 0 0 0 0 0
0 0 0 0 0 0 0 0 0 0 220 235 255 220 235 255 220 235 255 220 235 255
220 235 255 220 235 255 220 235 255 220 235 255 220 235 255 220 235
255 220 235 255 220 235 255 220 235 255 220 235 255 220 235 255 220
235 255 220 235 255 220 235 255 220 235 255 220 235 255 220 235 255
220 235 255 220 235 255 220 235 255 220 235 255 220 235 255 220 235
255 220 235 255 0 0 0 0 0 0 0 0 0 0 0 0 0 0 0 0 0 0 0 0 0 0 0 0 0 0
0 220 235 255 220 235 255 220 235 255 220 235 255 220 235 255 220 235
255 220 235 255 220 235 255 220 235 255 220 235 255 220 235 255 220
235 255 220 235 255 220 235 255 220 235 255 220 235 255 220 235 255
220 235 255 220 235 255 220 235 255 220 235 255 220 235 255 220 235
255 220 235 255 220 235 255 220 235 255 220 235 255 220 235 255 220
235 255 220 235 255 0 0 0 0 0 0 0 0 0 0 0 0 0 0 0 0 0 0 0 0 0 0 0 0
0 0 0 0 0 0 0 0 0 220 235 255 220 235 255 220 235 255 220 235 255 220
235 255 220 235 255 220 235 255 220 235 255 220 235 255 220 235 255
220 235 255 220 235 255 220 235 255 0 0 0 0 0 0 0 0 0 0 0 0 220 235
255 220 235 255 220 235 255 220 235 255 220 235 255 220 235 255 220
235 255 220 235 255 220 235 255 220 235 255 220 235 255 220 235 255
220 235 255 0 0 0 0 0 0 0 0 0 0 0 0 0 0 0 0 0 0 0 0 0 0 0 0 0 0 0 220
235 255 220 235 255 220 235 255 220 235 255 220 235 255 220 235 255
220 235 255 220 235 255 220 235 255 220 235 255 220 235 255 0 0 0 0
0 0 0 0 0 0 0 0 0 0 0 0 0 0 0 0 0 0 0 0 0 0 0 0 0 0 220 235 255 220
235 255 220 235 255 220 235 255 220 235 255 220 235 255 220 235 255
220 235 255 220 235 255 220 235 255 220 235 255 0 0 0 0 0 0 0 0 0 0
0 0 0 0 0 0 0 0 0 0 0 0 0 0 0 0 0 0 0 0 220 235 255 220 235 255 220
235 255 220 235 255 220 235 255 220 235 255 220 235 255 220 235 255
220 235 255 220 235 255 0 0 0 0 0 0 0 0 0 0 0 0 0 0 0 0 0 0 0 0 0 0
0 0 0 0 0 0 0 0 0 0 0 0 0 0 0 0 0 220 235 255 220 235 255 220 235 255
220 235 255 220 235 255 220 235 255 220 235 255 220 235 255 220 235
255 220 235 255 0 0 0 0 0 0 0 0 0 0 0 0 0 0 0 0 0 0 0 0 0 0 0 0 0 0
0 220 235 255 220 235 255 220 235 255 220 235 255 220 235 255 220 235
255 220 235 255 220 235 255 220 235 255 0 0 0 0 0 0 0 0 0 0 0 0 0 0
0 0 0 0 0 0 0 0 0 0 0 0 0 0 0 0 0 0 0 0 0 0 0 0 0 0 0 0 0 0 0 0 0 0
220 235 255 220 235 255 220 235 255 220 235 255 220 235 255 220 235
255 220 235 255 220 235 255 220 235 255 0 0 0 0 0 0 0 0 0 0 0 0 0 0
0 0 0 0 0 0 0 0 0 0 0 0 0 0 0 0 220 235 255 220 235 255 220 235 255
220 235 255 220 235 255 220 235 255 220 235 255 220 235 255 0 0 0 0
0 0 0 0 0 0 0 0 0 0 0 0 0 0 0 0 0 0 0 0 0 0 0 0 0 0 0 0 0 0 0 0 0 0
0 0 0 0 0 0 0 0 0 0 0 0 0 0 0 0 220 235 255 220 235 255 220 235 255
220 235 255 220 235 255 220 235 255 220 235 255 220 235 255 0 0 0 0
0 0 0 0 0 0 0 0 0 0 0 0 0 0 0 0 0 0 0 0 0 0 0 220 235 255 220 235 255
220 235 255 220 235 255 220 235 255 220 235 255 220 235 255 220 235
255 220 235 255 0 0 0 0 0 0 0 0 0 0 0 0 0 0 0 0 0 0 0 0 0 0 0 0 0 0
0 0 0 0 0 0 0 0 0 0 0 0 0 0 0 0 0 0 0 0 0 0 0 0 0 0 0 0 220 235 255
220 235 255 220 235 255 220 235 255 220 235 255 220 235 255 220 235
255 220 235 255 220 235 255 0 0 0 0 0 0 0 0 0 0 0 0 0 0 0 0 0 0 0 0
0 0 0 0 220 235 255 220 235 255 220 235 255 220 235 255 220 235 255
220 235 255 220 235 255 220 235 255 0 0 0 0 0 0 0 0 0 0 0 0 0 0 0 0
0 0 0 0 0 0 0 0 0 0 0 0 0 0 0 0 0 0 0 0 0 0 0 0 0 0 0 0 0 0 0 0 0 0
0 0 0 0 0 0 0 0 0 0 220 235 255 220 235 255 220 235 255 220 235 255
220 235 255 220 235 255 220 235 255 220 235 255 0 0 0 0 0 0 0 0 0 0
0 0 0 0 0 0 0 0 0 0 0 0 0 0 0 0 0 0 0 0 220 235 255 220 235 255 220
235 255 220 235 255 220 235 255 220 235 255 220 235 255 220 235 255
0 0 0 0 0 0 0 0 0 0 0 0 0 0 0 0 0 0 0 0 0 0 0 0 0 0 0 0 0 0 0 0 0 0
0 0 0 0 0 0 0 0 0 0 0 0 0 0 0 0 0 0 0 0 0 0 0 0 0 0 220 235 255 220
235 255 220 235 255 220 235 255 220 235 255 220 235 255 220 235 255
220 235 255 0 0 0 0 0 0 0 0 0 0 0 0 0 0 0 0 0 0 0 0 0 0 0 0 220 235
255 220 235 255 220 235 255 220 235 255 220 235 255 220 235 255 220
235 255 220 235 255 0 0 0 0 0 0 0 0 0 0 0 0 0 0 0 0 0 0 0 0 0 0 0 0
0 0 0 0 0 0 0 0 0 0 0 0 0 0 0 0 0 0 0 0 0 0 0 0 0 0 0 0 0 0 0 0 0 0
0 0 220 235 255 220 235 255 220 235 255 220 235 255 220 235 255 220
235 255 220 235 255 220 235 255 0 0 0 0 0 0 0 0 0 0 0 0 0 0 0 0 0 0
0 0 0 0 0 0 0 0 0 220 235 255 220 235 255 220 235 255 220 235 255 220
235 255 220 235 255 220 235 255 220 235 255 0 0 0 0 0 0 0 0 0 0 0 0
0 0 0 0 0 0 0 0 0 0 0 0 0 0 0 0 0 0 0 0 0 0 0 0 0 0 0 0 0 0 0 0 0 0
0 0 0 0 0 0 0 0 0 0 0 0 0 0 0 0 0 0 0 0 220 235 255 220 235 255 220
235 255 220 235 255 220 235 255 220 235 255 220 235 255 0 0 0 0 0 0
0 0 0 0 0 0 0 0 0 0 0 0 0 0 0 220 235 255 220 235 255 220 235 255 220
235 255 220 235 255 220 235 255 220 235 255 220 235 255 0 0 0 0 0 0
0 0 0 0 0 0 0 0 0 0 0 0 0 0 0 0 0 0 0 0 0 0 0 0 0 0 0 0 0 0 0 0 0 0
0 0 0 0 0 0 0 0 0 0 0 0 0 0 0 0 0 0 0 0 0 0 0 0 0 0 220 235 255 220
235 255 220 235 255 220 235 255 220 235 255 220 235 255 220 235 255
220 235 255 0 0 0 0 0 0 0 0 0 0 0 0 0 0 0 0 0 0 0 0 0 0 0 0 220 235
255 220 235 255 220 235 255 220 235 255 220 235 255 220 235 255 220
235 255 220 235 255 0 0 0 0 0 0 0 0 0 0 0 0 0 0 0 0 0 0 0 0 0 0 0 0
0 0 0 0 0 0 0 0 0 0 0 0 0 0 0 0 0 0 0 0 0 0 0 0 0 0 0 0 0 0 0 0 0 0
0 0 0 0 0 0 0 0 220 235 255 220 235 255 220 235 255 220 235 255 220
235 255 220 235 255 220 235 255 0 0 0 0 0 0 0 0 0 0 0 0 0 0 0 0 0 0
0 0 0 0 0 0 220 235 255 220 235 255 220 235 255 220 235 255 220 235
255 220 235 255 220 235 255 0 0 0 0 0 0 0 0 0 0 0 0 0 0 0 0 0 0 0 0
0 0 0 0 0 0 0 0 0 0 0 0 0 0 0 0 0 0 0 0 0 0 0 0 0 0 0 0 0 0 0 0 0 0
0 0 0 0 0 0 0 0 0 0 0 0 220 235 255 220 235 255 220 235 255 220 235
255 220 235 255 220 235 255 220 235 255 220 235 255 0 0 0 0 0 0 0 0
0 0 0 0 0 0 0 0 0 0 0 0 0 0 0 0 0 0 0 220 235 255 220 235 255 220 235
255 220 235 255 220 235 255 220 235 255 220 235 255 220 235 255 0 0
0 0 0 0 0 0 0 0 0 0 0 0 0 0 0 0 0 0 0 0 0 0 0 0 0 0 0 0 0 0 0 0 0 0
0 0 0 0 0 0 0 0 0 0 0 0 0 0 0 0 0 0 0 0 0 0 0 0 220 235 255 220 235
255 220 235 255 220 235 255 220 235 255 220 235 255 220 235 255 220
235 255 0 0 0 0 0 0 0 0 0 0 0 0 0 0 0 0 0 0 0 0 0 0 0 0 220 235 255
220 235 255 220 235 255 220 235 255 220 235 255 220 235 255 220 235
255 220 235 255 0 0 0 0 0 0 0 0 0 0 0 0 0 0 0 0 0 0 0 0 0 0 0 0 0 0
0 0 0 0 0 0 0 0 0 0 0 0 0 0 0 0 0 0 0 0 0 0 0 0 0 0 0 0 0 0 0 0 0 0
220 235 255 220 235 255 220 235 255 220 235 255 220 235 255 220 235
255 220 235 255 220 235 255 0 0 0 0 0 0 0 0 0 0 0 0 0 0 0 0 0 0 0 0
0 0 0 0 0 0 0 0 0 0 220 235 255 220 235 255 220 235 255 220 235 255
220 235 255 220 235 255 220 235 255 220 235 255 0 0 0 0 0 0 0 0 0 0
0 0 0 0 0 0 0 0 0 0 0 0 0 0 0 0 0 0 0 0 0 0 0 0 0 0 0 0 0 0 0 0 0 0
0 0 0 0 0 0 0 0 0 0 0 0 0 0 0 0 220 235 255 220 235 255 220 235 255
220 235 255 220 235 255 220 235 255 220 235 255 220 235 255 0 0 0 0
0 0 0 0 0 0 0 0 0 0 0 0 0 0 0 0 0 0 0 0 220 235 255 220 235 255 220
235 255 220 235 255 220 235 255 220 235 255 220 235 255 220 235 255
220 235 255 0 0 0 0 0 0 0 0 0 0 0 0 0 0 0 0 0 0 0 0 0 0 0 0 0 0 0 0
0 0 0 0 0 0 0 0 0 0 0 0 0 0 0 0 0 0 0 0 0 0 0 0 0 0 220 235 255 220
235 255 220 235 255 220 235 255 220 235 255 220 235 255 220 235 255
220 235 255 220 235 255 0 0 0 0 0 0 0 0 0 0 0 0 0 0 0 0 0 0 0 0 0 220
235 255 220 235 255 220 235 255 220 235 255 220 235 255 220 235 255
220 235 255 220 235 255 220 235 255 0 0 0 0 0 0 0 0 0 0 0 0 0 0 0 0
0 0 0 0 0 0 0 0 0 0 0 0 0 0 0 0 0 0 0 0 0 0 0 0 0 0 0 0 0 0 0 0 220
235 255 220 235 255 220 235 255 220 235 255 220 235 255 220 235 255
220 235 255 220 235 255 220 235 255 0 0 0 0 0 0 0 0 0 0 0 0 0 0 0 0
0 0 0 0 0 0 0 0 0 0 0 0 0 0 220 235 255 220 235 255 220 235 255 220
235 255 220 235 255 220 235 255 220 235 255 220 235 255 220 235 255
0 0 0 0 0 0 0 0 0 0 0 0 0 0 0 0 0 0 0 0 0 0 0 0 0 0 0 0 0 0 0 0 0 0
0 0 0 0 0 0 0 0 0 0 0 0 0 0 220 235 255 220 235 255 220 235 255 220
235 255 220 235 255 220 235 255 220 235 255 220 235 255 220 235 255
0 0 0 0 0 0 0 0 0 0 0 0 0 0 0 0 0 0 0 0 0 0 0 0 220 235 255 220 235
255 220 235 255 220 235 255 220 235 255 220 235 255 220 235 255 220
235 255 220 235 255 220 235 255 0 0 0 0 0 0 0 0 0 0 0 0 0 0 0 0 0 0
0 0 0 0 0 0 0 0 0 0 0 0 0 0 0 0 0 0 220 235 255 220 235 255 220 235
255 220 235 255 220 235 255 220 235 255 220 235 255 220 235 255 220
235 255 220 235 255 0 0 0 0 0 0 0 0 0 0 0 0 0 0 0 0 0 0 0 0 0 0 0 0
0 0 0 0 0 0 220 235 255 220 235 255 220 235 255 220 235 255 220 235
255 220 235 255 220 235 255 220 235 255 220 235 255 220 235 255 220
235 255 0 0 0 0 0 0 0 0 0 0 0 0 0 0 0 0 0 0 0 0 0 0 0 0 0 0 0 0 0 0
220 235 255 220 235 255 220 235 255 220 235 255 220 235 255 220 235
255 220 235 255 220 235 255 220 235 255 220 235 255 220 235 255 0 0
0 0 0 0 0 0 0 0 0 0 0 0 0 0 0 0 0 0 0 0 0 0 220 235 255 220 235 255
220 235 255 220 235 255 220 235 255 220 235 255 220 235 255 220 235
255 220 235 255 220 235 255 220 235 255 220 235 255 220 235 255 0 0
0 0 0 0 0 0 0 0 0 0 220 235 255 220 235 255 220 235 255 220 235 255
220 235 255 220 235 255 220 235 255 220 235 255 220 235 255 220 235
255 220 235 255 220 235 255 220 235 255 0 0 0 0 0 0 0 0 0 0 0 0 0 0
0 0 0 0 0 0 0 0 0 0 0 0 0 0 0 0 220 235 255 220 235 255 220 235 255
220 235 255 220 235 255 220 235 255 220 235 255 220 235 255 220 235
255 220 235 255 220 235 255 220 235 255 220 235 255 220 235 255 220
235 255 220 235 255 220 235 255 220 235 255 220 235 255 220 235 255
220 235 255 220 235 255 220 235 255 220 235 255 220 235 255 220 235
255 220 235 255 220 235 255 220 235 255 0 0 0 0 0 0 0 0 0 0 0 0 0 0
0 0 0 0 0 0 0 0 0 0 0 0 0 220 235 255 220 235 255 220 235 255 220 235
255 220 235 255 220 235 255 220 235 255 220 235 255 220 235 255 220
235 255 220 235 255 220 235 255 220 235 255 220 235 255 220 235 255
220 235 255 220 235 255 220 235 255 220 235 255 220 235 255 220 235
255 220 235 255 220 235 255 220 235 255 220 235 255 220 235 255 220
235 255 220 235 255 0 0 0 0 0 0 0 0 0 0 0 0 0 0 0 0 0 0 0 0 0 0 0 0
0 0 0 0 0 0 0 0 0 220 235 255 220 235 255 220 235 255 220 235 255 220
235 255 220 235 255 220 235 255 220 235 255 220 235 255 220 235 255
220 235 255 220 235 255 220 235 255 220 235 255 220 235 255 220 235
255 220 235 255 220 235 255 220 235 255 220 235 255 220 235 255 220
235 255 220 235 255 220 235 255 220 235 255 220 235 255 0 0 0 0 0 0
0 0 0 0 0 0 0 0 0 0 0 0 0 0 0 0 0 0 0 0 0 0 0 0 0 0 0 220 235 255 220
235 255 220 235 255 220 235 255 220 235 255 220 235 255 220 235 255
220 235 255 220 235 255 220 235 255 220 235 255 220 235 255 220 235
255 220 235 255 220 235 255 220 235 255 220 235 255 220 235 255 220
235 255 220 235 255 220 235 255 220 235 255 220 235 255 0 0 0 0 0 0
0 0 0 0 0 0 0 0 0 0 0 0 0 0 0 0 0 0 0 0 0 0 0 0 0 0 0 0 0 0 0 0 0 220
235 255 220 235 255 220 235 255 220 235 255 220 235 255 220 235 255
220 235 255 220 235 255 220 235 255 220 235 255 220 235 255 220 235
255 220 235 255 220 235 255 220 235 255 220 235 255 220 235 255 220
235 255 220 235 255 220 235 255 0 0 0 0 0 0 0 0 0 0 0 0 0 0 0 0 0 0
0 0 0 0 0 0 0 0 0 0 0 0 0 0 0 0 0 0 0 0 0 220 235 255 220 235 255 220
235 255 220 235 255 220 235 255 220 235 255 220 235 255 220 235 255
220 235 255 220 235 255 220 235 255 220 235 255 220 235 255 220 235
255 220 235 255 220 235 255 0 0 0 0 0 0 0 0 0 0 0 0 0 0 0 0 0 0 0 0
0 0 0 0 0 0 0 0 0 0 0 0 0 0 0 0 0 0 0 0 0 0 0 0 0 0 0 0 0 0 0 220 235
255 220 235 255 220 235 255 220 235 255 220 235 255 220 235 255 220
235 255 220 235 255 220 235 255 220 235 255 220 235 255 220 235 255
0 0 0 0 0 0 0 0 0 0 0 0 0 0 0 0 0 0 0 0 0 0 0 0 0 0 0 0 0 0 0 0 0 0
0 0 0 0 0 0 0 0 0 0 0 0 0 0 0 0 0 0 0 0 0 0 0 0 0 0 220 235 255 0 0
0 0 0 0 0 0 0 0 0 0 0 0 0 0 0 0 0 0 0 0 0 0 0 0 0 0 0 0 0 0 0 0 0 0
0 0 0 0 0 0 0 0 0 0 0 0 0 0 0 0 0 0 0 0 0 0 0 0 0 0 0 0 0 0 0 0 0 0
0 0 0 0 0 0 0 0 0 0 0 0 0 0 0 0 0 0 0 0 0 0 0 0 0 0 0 0 0 0 0 0 0 0
0 0 0 0 0 0 0 0 0 0 0 0 0 0 0 0 0 0 0 0 0 0 0 0 0 0 0 0 0 0 0 0 0 0
0 0 0 0 0 0 0 0 0 0 0 0 0 0 0 0 0 0 0 0 0 0 0 0 0 0 0 0 0 0 0 0 0 0
0 0 0 0 0 0 0 0 0 0 0 0 0 0 0 0 0 0 0 0 0 0 0 0 0 0 0 0 0 0 0 0 0 0
0 0 0 0 0 0 0 0 0 0 0 0 0 0 0 0 0 0 0 0 0 0 0 0 0 0 0 0 0 0 0 0 0 0
0 0 0 0 0 0 0 0 0 0 0 0 0 0 0 0 0 0 0 0 0 0 0 0 0 0 0 0 0 0 0 0 0 0
0 0 0 0 0 0 0 0 0 0 0 0 0 0 0 0 0 0 0 0 0 0 0 0 0 0 0 0 0 0 0 0 0 0
0 0 0 0 0 0 0 0 0 0 0 0 0 0 0 0 0 0 0 0 0 0 0 0 0 0 0 0 0 0 0 0 0 0
0 0 0 0 0 0 0 0 0 0 0 0 0 0 0 0 0 0 0 0 0 0 0 0 0 0 0 0 0 0 0 0 0 0
0 0 0 0 0 0 0 0 0 0 0 0 0 0 0 0 0 0 0 0 0 0 0 0 0 0 0 0 0 0 0 0 0 0
0 0 0 0 0 0 0 0 0 0 0 0 0 0 0 0 0 0 0 0 0 0 0 0 0 0 0 0 0 0 0 0 0 0
0 0 0 0 0 0 0 0 0 0 0 0 0 0 0 0 0 0 0 0 0 0 0 0 0 0 0 0 0 0 0 0 0 0
0 0 0 0 0 0 0 0 0 0 0 0 0 0 0 0 0 0 0 0 0 0 0 0 0 0 0 0 0 0 0 0 0 0
0 0 0 0 0 0 0 0 0 0 0 0 0 0 0 0 0 0 0 0 0 0 0 0 0 0 0 0 0 0 0 0 0 0
0 0 0 0 0 0 0 0 0 0 0 0 0 0 0 0 0 0 0 0 0 0 0 0 0 0 0 0 0 0 0 0 0 0
0 0 0 0 0 0 0 0 0 0 0 0 0 0 0 0 0 0 0 0 0 0 0 0 0 0 0 0 0 0 0 0 0 0
0 0 0 0 0 0 0 0 0 0 0 0 0 0 0 0 0 0 0 0 0 0 0 0 0 0 0 0 0 0 0 0 0 0
0 0 0 0 0 0 0 0 0 0 0 0 0 0 0 0 0 0 0 0 0 0 0 0 0 0 0 0 0 0 0 0 0 0
0 0 0 0 0 0 0 0 0 0 0 0 0 0 0 0 0 0 0 0 0 0 0 0 0 0 0 0 0 0 0 0 0 0
0 0 0 0 0 0 0 0 0 0 0 0 0 0 0 0 0 0 0 0 0 0 0 0 0 0 0 0 0 0 0 0 0 0
0 0 0 0 0 0 0 0 0 0 0 0 0 0 0 0 0 0 0 0 0 0 0 0 0 0 0 0 0 0 0 0 0 0
0 0 0 0 0 0 0 0 0 0 0 0 0 0 0 0 0 0 0 0 0 0 0 0 0 0 0 0 0 0 0 0 0 0
0 0 0 0 0 0 0 0 0 0 0 0 0 0 0 0 0 0 0 0 0 0 0 0 0 0 0 0 0 0 0 0 0 0
0 0 0 0 0 0 0 0 0 0 0 0 0 0 0 0 0 0 0 0 0 0 0 0 0 0 0 0 0 0 0 0 0 0
0 0 0 0 0 0 0 0 0 0 0 0 0 0 0 0 0 0 0 0 0 0 0 0 0 0 0 0 0 0 0 0 0 0
0 0 0 0 0 0 0 0 0 0 0 0 0 0 0 0 0 0 0 0 0 0 0 0 0 0 0 0 0 0 0 0 0 0
0 0 0 0 0 0 0 0 0 0 0 0 0 0 0 0 0 0 0 0 0 0 0 0 0 0 0 0 0 0 0 0 0 0
0 0 0 0 0 0 0 0 0 0 0 0 0 0 0 0 0 0 0 0 0 0 0 0 0 0 0 0 0 0 0 0 0 0
0 0 0 0 0 0 0 0 0 0 0 0 0 0 0 0 0 0 0 0 0 0 0 0 0 0 0 0 0 0 0 0 0 0
0 0 0 0 0 0 0 0 0 0 0 0 0 0 0 0 0 0 0 0 0 0 0 0 0 0 0 0 0 0 0 0 0 0
0 0 0 0 0 0 0 0 0 0 0 0 0 0 0 0 0 0 0 0 0 0 0 0 0 0 0 0 0 0 0 0 0 0
0 0 0 0 0 0 0 0 0 0 0 0 0 0 0 0 0 0 0 0 0 0 0 0 0 0 0 0 0 0 0 0 0 0
0 0 0 0 0 0 0 0 0 0 0 0 0 0 0 0 0 0 0 0 0 0 0 0 0 0 0 0 0 0 0 0 0 0
0 0 0 0 0 0 0 0 0 0 0 0 0 0 0 0 0 0 0 0 0 0 0 0 0 0 0 0 0 0 0 0 0 0
0 0 0 0 0 0 0 0 0 0 0 0 0 0 0 0 0 0 0 0 0 0 0 0 0 0 0 0 0 0 0 0 0 0
0 0 0 0 0 0 0 0 0 0 0 0 0 0 0 0 0 0 0 0 0 0 0 0 0 0 0 0 0 0 0 0 0 0
0 0 0 0 0 0 0 0 0 0 0 0 0 0 0 0 0 0 0 0 0 0 0 0 0;
#X connect 0 0 1 0;
#X connect 1 0 2 0;
#X connect 2 0 3 0;
#X connect 3 0 4 0;
